<svg version="1.1" xmlns="http://www.w3.org/2000/svg" xmlns:xlink="http://www.w3.org/1999/xlink" width="1003" height="771" viewBox="0 0 1003 771"><defs/><g transform="matrix(1,0,0,1,0,0)"><g><g><g><path fill="none" stroke="#d3d3d3" paint-order="fill stroke markers" d=" M 0 0 L 1200 0" stroke-miterlimit="10" stroke-opacity="0.8" stroke-dasharray="5"/></g><g><path fill="none" stroke="#d3d3d3" paint-order="fill stroke markers" d=" M 0 0 L 0 800" stroke-miterlimit="10" stroke-opacity="0.8" stroke-dasharray="5"/></g></g><g id="_A2A2BAD4-DC6C-4E67-BC38-2F68C4EC4A9F" transform="matrix(1,0,0,1,268,670)"><g><path fill="none" stroke="none"/></g><g transform="matrix(0.9345794392523364,0,0,0.8771929824561403,0,0)"><g transform="matrix(1,0,0,1,0,0)"><path fill="none" stroke="#000000" id="_A2A2BAD4-DC6C-4E67-BC38-2F68C4EC4A9F?shapeType=BORDER&amp;renderType=STROKE" paint-order="fill stroke markers" d=" M 0 0 M 1.5 30 C 1.5 14.3 14.3 1.5 30 1.5 L 80 1.5 C 95.7 1.5 108.5 14.3 108.5 30 C 108.5 45.7 95.7 58.5 80 58.5 L 30 58.5 C 14.3 58.5 1.5 45.7 1.5 30 Z" stroke-miterlimit="10" stroke-width="1.5" stroke-dasharray=""/></g></g><g transform="matrix(1,0,0,1,32.24079132080078,18.5)"><text fill="#000000" stroke="none" font-family="Open Sans" font-size="10pt" font-style="normal" font-weight="normal" text-decoration="normal" x="17.75920867919922" y="10.4" text-anchor="middle" dominant-baseline="alphabetic">Client</text></g></g><g id="_E6BB9D8B-0644-44C7-80C5-A3108E9A8C4E" transform="matrix(1,0,0,1,467,670)"><g><path fill="none" stroke="none"/></g><g transform="matrix(0.9345794392523364,0,0,0.8771929824561403,0,0)"><g transform="matrix(1,0,0,1,0,0)"><path fill="none" stroke="#000000" id="_E6BB9D8B-0644-44C7-80C5-A3108E9A8C4E?shapeType=BORDER&amp;renderType=STROKE" paint-order="fill stroke markers" d=" M 0 0 M 1.5 30 C 1.5 14.3 14.3 1.5 30 1.5 L 80 1.5 C 95.7 1.5 108.5 14.3 108.5 30 C 108.5 45.7 95.7 58.5 80 58.5 L 30 58.5 C 14.3 58.5 1.5 45.7 1.5 30 Z" stroke-miterlimit="10" stroke-width="1.5" stroke-dasharray=""/></g></g><g transform="matrix(1,0,0,1,34.717384338378906,18.5)"><text fill="#000000" stroke="none" font-family="Open Sans" font-size="10pt" font-style="normal" font-weight="normal" text-decoration="normal" x="15.282615661621094" y="10.4" text-anchor="middle" dominant-baseline="alphabetic">Loan</text></g></g><g id="_6FF53E9E-8E5C-4489-B9DF-77E1190EC26F" transform="matrix(1,0,0,1,368,517)"><g><path fill="none" stroke="none"/></g><g transform="matrix(1,0,0,1,0,0)"><path fill="none" stroke="#000000" id="_6FF53E9E-8E5C-4489-B9DF-77E1190EC26F?shapeType=BORDER&amp;renderType=STROKE" paint-order="fill stroke markers" d=" M 0 0 L 100 0 L 100 50 L 0 50 L 0 0 Z Z" stroke-miterlimit="10" stroke-width="1.5" stroke-dasharray=""/></g><g transform="matrix(1,0,0,1,22.731460571289062,18.5)"><text fill="#000000" stroke="none" font-family="Open Sans" font-size="10pt" font-style="normal" font-weight="normal" text-decoration="normal" x="27.268539428710938" y="10.4" text-anchor="middle" dominant-baseline="alphabetic">Eligibility</text></g></g><g id="_A7BF21E4-D4E2-4062-BD61-5735D375B604" transform="matrix(1,0,0,1,687.2990654205607,517.3421052631579)"><g><path fill="none" stroke="none"/></g><g transform="matrix(0.9345794392523364,0,0,0.8771929824561403,0,0)"><g transform="matrix(1,0,0,1,0,0)"><path fill="none" stroke="#000000" id="_A7BF21E4-D4E2-4062-BD61-5735D375B604?shapeType=BORDER&amp;renderType=STROKE" paint-order="fill stroke markers" d=" M 0 0 M 1.5 30 C 1.5 14.3 14.3 1.5 30 1.5 L 80 1.5 C 95.7 1.5 108.5 14.3 108.5 30 C 108.5 45.7 95.7 58.5 80 58.5 L 30 58.5 C 14.3 58.5 1.5 45.7 1.5 30 Z" stroke-miterlimit="10" stroke-width="1.5" stroke-dasharray=""/></g></g><g transform="matrix(1,0,0,1,3.5045089721679688,12)"><text fill="#000000" stroke="none" font-family="Open Sans" font-size="10pt" font-style="normal" font-weight="normal" text-decoration="normal" x="46.49549102783203" y="10.4" text-anchor="middle" dominant-baseline="alphabetic">SupremeDirect</text><text fill="#000000" stroke="none" font-family="Open Sans" font-size="10pt" font-style="normal" font-weight="normal" text-decoration="normal" x="46.49549102783203" y="23.400000000000002" text-anchor="middle" dominant-baseline="alphabetic">           or            </text></g></g><g id="_44662002-CD87-4468-9AE0-CF6A90BE5CF3" transform="matrix(1,0,0,1,524,364)"><g><path fill="none" stroke="none"/></g><g transform="matrix(1,0,0,1,0,0)"><path fill="none" stroke="#000000" id="_44662002-CD87-4468-9AE0-CF6A90BE5CF3?shapeType=BORDER&amp;renderType=STROKE" paint-order="fill stroke markers" d=" M 0 0 L 100 0 L 100 50 L 0 50 L 0 0 Z Z" stroke-miterlimit="10" stroke-width="1.5" stroke-dasharray=""/></g><g transform="matrix(1,0,0,1,16.271499633789062,18.5)"><text fill="#000000" stroke="none" font-family="Open Sans" font-size="10pt" font-style="normal" font-weight="normal" text-decoration="normal" x="33.72850036621094" y="10.4" text-anchor="middle" dominant-baseline="alphabetic">Judgement</text></g></g><g id="_141530A6-E7CF-4531-951B-40F71869FCCF" transform="matrix(1,0,0,1,852,363.6842105263158)"><g><path fill="none" stroke="none"/></g><g transform="matrix(0.9345794392523364,0,0,0.8771929824561403,0,0)"><g transform="matrix(1,0,0,1,0,0)"><path fill="none" stroke="#000000" id="_141530A6-E7CF-4531-951B-40F71869FCCF?shapeType=BORDER&amp;renderType=STROKE" paint-order="fill stroke markers" d=" M 0 0 M 1.5 30 C 1.5 14.3 14.3 1.5 30 1.5 L 80 1.5 C 95.7 1.5 108.5 14.3 108.5 30 C 108.5 45.7 95.7 58.5 80 58.5 L 30 58.5 C 14.3 58.5 1.5 45.7 1.5 30 Z" stroke-miterlimit="10" stroke-width="1.5" stroke-dasharray=""/></g></g><g transform="matrix(1,0,0,1,33.451416015625,18.5)"><text fill="#000000" stroke="none" font-family="Open Sans" font-size="10pt" font-style="normal" font-weight="normal" text-decoration="normal" x="16.548583984375" y="10.4" text-anchor="middle" dominant-baseline="alphabetic">Bribe</text></g></g><g id="_F75B5B6A-1E81-4346-8499-4D113E67E1F4" transform="matrix(1,0,0,1,852,279.3421052631579)"><g><path fill="none" stroke="none"/></g><g transform="matrix(1,0,0,1,0,0)"><path fill="none" stroke="#000000" id="_F75B5B6A-1E81-4346-8499-4D113E67E1F4?shapeType=BORDER&amp;renderType=STROKE" paint-order="fill stroke markers" d=" M 0 0 L 100 0 L 100 50 L 0 50 L 0 0 Z Z" stroke-miterlimit="10" stroke-width="1.5" stroke-dasharray=""/></g><g transform="matrix(1,0,0,1,16.71410369873047,18.5)"><text fill="#000000" stroke="none" font-family="Open Sans" font-size="10pt" font-style="normal" font-weight="normal" text-decoration="normal" x="33.28589630126953" y="10.4" text-anchor="middle" dominant-baseline="alphabetic">Is Enough?</text></g></g><g id="_9D49FD5F-639A-481C-B900-8DE36B7A24DA" transform="matrix(1,0,0,1,649,152)"><g><path fill="none" stroke="none"/></g><g transform="matrix(1,0,0,1,0,0)"><path fill="none" stroke="#000000" id="_9D49FD5F-639A-481C-B900-8DE36B7A24DA?shapeType=BORDER&amp;renderType=STROKE" paint-order="fill stroke markers" d=" M 0 0 L 100 0 L 100 50 L 0 50 L 0 0 Z Z" stroke-miterlimit="10" stroke-width="1.5" stroke-dasharray=""/></g><g transform="matrix(1,0,0,1,28.719528198242188,18.5)"><text fill="#000000" stroke="none" font-family="Open Sans" font-size="10pt" font-style="normal" font-weight="normal" text-decoration="normal" x="21.280471801757812" y="10.4" text-anchor="middle" dominant-baseline="alphabetic">Decide</text></g></g><g id="_69300CDF-6FFB-4809-966B-644F56F9066A#_3D11E284-712F-4E06-B3B1-E5A9B92999D5"><g><path fill="none" stroke="#000000" paint-order="fill stroke markers" d=" M 318 670 L 418 567" stroke-miterlimit="10" stroke-dasharray=""/></g><g transform="matrix(-0.6965808651850531,0.7174782911406051,-0.7174782911406051,-0.6965808651850531,318,670)"/><g transform="matrix(0.7174782911406049,0.6965808651850532,-0.6965808651850532,0.7174782911406049,414.412608544297,563.5170956740748)"><path fill="#000000" stroke="#000000" paint-order="fill stroke markers" d=" M 10 15 L 0 15 L 5 0 Z" stroke-miterlimit="10" stroke-dasharray=""/></g><g transform="matrix(1,0,0,1,325.17478291140606,611.5341913481494)"/></g><g id="_69300CDF-6FFB-4809-966B-644F56F9066A#_96E2003D-D51E-46AA-A1C9-1063E273AA05"><g><path fill="none" stroke="#000000" paint-order="fill stroke markers" d=" M 418 517 L 574 414" stroke-miterlimit="10" stroke-dasharray=""/></g><g transform="matrix(-0.8345110197906036,0.55099125024636,-0.55099125024636,-0.8345110197906036,418,517)"/><g transform="matrix(0.5509912502463601,0.8345110197906035,-0.8345110197906035,0.5509912502463601,571.2450437487682,409.827444901047)"><path fill="#000000" stroke="#000000" paint-order="fill stroke markers" d=" M 10 15 L 0 15 L 5 0 Z" stroke-miterlimit="10" stroke-dasharray=""/></g><g transform="matrix(1,0,0,1,423.5099125024636,457.154889802094)"/></g><g id="_69300CDF-6FFB-4809-966B-644F56F9066A#_C1DB403E-22F3-431D-AEC1-98F16D57D00A"><g><path fill="none" stroke="#000000" paint-order="fill stroke markers" d=" M 624 389 L 699 202" stroke-miterlimit="10" stroke-dasharray=""/></g><g transform="matrix(-0.37224625713647047,0.9281340011269325,-0.9281340011269325,-0.37224625713647047,624,389)"/><g transform="matrix(0.9281340011269326,0.3722462571364703,-0.3722462571364703,0.9281340011269326,694.3593299943653,200.13876871431765)"><path fill="#000000" stroke="#000000" paint-order="fill stroke markers" d=" M 10 15 L 0 15 L 5 0 Z" stroke-miterlimit="10" stroke-dasharray=""/></g><g transform="matrix(1,0,0,1,633.5567142976223,291.7775374286353)"/></g><g id="_69300CDF-6FFB-4809-966B-644F56F9066A#_415EBA81-5FDF-45D5-8783-CB97C0485672"><g><path fill="none" stroke="#000000" paint-order="fill stroke markers" d=" M 517 670 L 418 567" stroke-miterlimit="10" stroke-dasharray=""/></g><g transform="matrix(0.6929688171048296,0.7209675571898733,-0.7209675571898733,0.6929688171048296,517,670)"/><g transform="matrix(0.7209675571898732,-0.6929688171048298,0.6929688171048298,0.7209675571898732,414.39516221405063,570.4648440855242)"><path fill="#000000" stroke="#000000" paint-order="fill stroke markers" d=" M 10 15 L 0 15 L 5 0 Z" stroke-miterlimit="10" stroke-dasharray=""/></g><g transform="matrix(1,0,0,1,425.20967557189874,611.5703118289517)"/></g><g id="_69300CDF-6FFB-4809-966B-644F56F9066A#_EE5D79A8-BCA2-4818-9AF1-11068BD4B25C"><g><path fill="none" stroke="#000000" paint-order="fill stroke markers" d=" M 737.2990654205607 517.3421052631579 L 574 414" stroke-miterlimit="10" stroke-dasharray=""/></g><g transform="matrix(0.8450076338801611,0.5347542413896795,-0.5347542413896795,0.8450076338801611,737.2990654205607,517.3421052631579)"/><g transform="matrix(0.5347542413896794,-0.8450076338801612,0.8450076338801612,0.5347542413896794,571.3262287930517,418.2250381694008)"><path fill="#000000" stroke="#000000" paint-order="fill stroke markers" d=" M 10 15 L 0 15 L 5 0 Z" stroke-miterlimit="10" stroke-dasharray=""/></g><g transform="matrix(1,0,0,1,579.3475424138968,457.2209762927773)"/></g><g id="_69300CDF-6FFB-4809-966B-644F56F9066A#_986FC7F9-E9C0-40C8-BE1B-E9575A95F376"><g><path fill="none" stroke="#000000" paint-order="fill stroke markers" d=" M 902 363.6842105263158 L 902 329.3421052631579" stroke-miterlimit="10" stroke-dasharray=""/></g><g transform="matrix(6.123233995736766e-17,1,-1,6.123233995736766e-17,902,363.6842105263158)"/><g transform="matrix(1,0,0,1,897,329.3421052631579)"><path fill="#000000" stroke="#000000" paint-order="fill stroke markers" d=" M 10 15 L 0 15 L 5 0 Z" stroke-miterlimit="10" stroke-dasharray=""/></g><g transform="matrix(1,0,0,1,912,346.5131578947369)"/></g><g id="_69300CDF-6FFB-4809-966B-644F56F9066A#_44E96742-9125-4484-8ABF-1D999EBC32E3"><g><path fill="none" stroke="#000000" paint-order="fill stroke markers" d=" M 902 279.3421052631579 L 699 202" stroke-miterlimit="10" stroke-dasharray=""/></g><g transform="matrix(0.934474300912223,0.35603058988605446,-0.35603058988605446,0.934474300912223,902,279.3421052631579)"/><g transform="matrix(0.35603058988605424,-0.9344743009122232,0.9344743009122232,0.35603058988605424,697.2198470505697,206.6723715045611)"><path fill="#000000" stroke="#000000" paint-order="fill stroke markers" d=" M 10 15 L 0 15 L 5 0 Z" stroke-miterlimit="10" stroke-dasharray=""/></g><g transform="matrix(1,0,0,1,710.6128758076383,231.32630962245673)"/></g><g transform="matrix(1,0,0,1,268,670)"/><g transform="matrix(1,0,0,1,467,670)"/><g transform="matrix(1,0,0,1,368,517)"/><g transform="matrix(1,0,0,1,687.2990654205607,517.3421052631579)"/><g transform="matrix(1,0,0,1,524,364)"/><g transform="matrix(1,0,0,1,852,363.6842105263158)"/><g transform="matrix(1,0,0,1,852,279.3421052631579)"/><g transform="matrix(1,0,0,1,649,152)"/></g></g></svg>